<mxfile host="Electron" agent="Mozilla/5.0 (Windows NT 10.0; Win64; x64) AppleWebKit/537.36 (KHTML, like Gecko) draw.io/24.7.17 Chrome/128.0.6613.36 Electron/32.0.1 Safari/537.36" version="24.7.17">
  <diagram name="Страница — 1" id="FWmps2mzetm0AREjWc2H">
    <mxGraphModel dx="1635" dy="1140" grid="0" gridSize="10" guides="1" tooltips="1" connect="1" arrows="1" fold="1" page="0" pageScale="1" pageWidth="827" pageHeight="1169" math="0" shadow="0">
      <root>
        <mxCell id="0" />
        <mxCell id="1" parent="0" />
        <mxCell id="Q_3DqqbYxOT3w7kZlgC--1" value="Пользователь" style="shape=umlActor;verticalLabelPosition=bottom;verticalAlign=top;html=1;" parent="1" vertex="1">
          <mxGeometry x="-131" y="239" width="30" height="60" as="geometry" />
        </mxCell>
        <mxCell id="Q_3DqqbYxOT3w7kZlgC--2" value="Домострой" style="shape=umlFrame;whiteSpace=wrap;html=1;pointerEvents=0;width=84;height=36;" parent="1" vertex="1">
          <mxGeometry x="91" y="-71" width="548" height="674" as="geometry" />
        </mxCell>
        <mxCell id="B_ZZd6LLFzJvC6nuvmO2-8" value="Авторизованный&lt;div&gt;пользователь&lt;/div&gt;" style="shape=umlActor;verticalLabelPosition=bottom;verticalAlign=top;html=1;" vertex="1" parent="1">
          <mxGeometry x="-35" y="155" width="30" height="60" as="geometry" />
        </mxCell>
        <mxCell id="B_ZZd6LLFzJvC6nuvmO2-9" value="Неавторизованный&lt;div&gt;пользователь&lt;/div&gt;" style="shape=umlActor;verticalLabelPosition=bottom;verticalAlign=top;html=1;" vertex="1" parent="1">
          <mxGeometry x="-17" y="349" width="30" height="60" as="geometry" />
        </mxCell>
        <mxCell id="B_ZZd6LLFzJvC6nuvmO2-10" value="" style="endArrow=block;html=1;rounded=0;endFill=0;" edge="1" parent="1" source="B_ZZd6LLFzJvC6nuvmO2-9" target="Q_3DqqbYxOT3w7kZlgC--1">
          <mxGeometry width="50" height="50" relative="1" as="geometry">
            <mxPoint x="311" y="391" as="sourcePoint" />
            <mxPoint x="361" y="341" as="targetPoint" />
          </mxGeometry>
        </mxCell>
        <mxCell id="B_ZZd6LLFzJvC6nuvmO2-11" value="" style="endArrow=block;html=1;rounded=0;endFill=0;" edge="1" parent="1" source="B_ZZd6LLFzJvC6nuvmO2-8" target="Q_3DqqbYxOT3w7kZlgC--1">
          <mxGeometry width="50" height="50" relative="1" as="geometry">
            <mxPoint x="311" y="391" as="sourcePoint" />
            <mxPoint x="361" y="341" as="targetPoint" />
          </mxGeometry>
        </mxCell>
        <mxCell id="B_ZZd6LLFzJvC6nuvmO2-13" value="Просмотр объявлений" style="ellipse;whiteSpace=wrap;html=1;" vertex="1" parent="1">
          <mxGeometry x="128" y="313" width="90" height="80" as="geometry" />
        </mxCell>
        <mxCell id="B_ZZd6LLFzJvC6nuvmO2-14" value="" style="endArrow=none;html=1;rounded=0;" edge="1" parent="1" source="Q_3DqqbYxOT3w7kZlgC--1" target="B_ZZd6LLFzJvC6nuvmO2-13">
          <mxGeometry width="50" height="50" relative="1" as="geometry">
            <mxPoint x="188" y="336" as="sourcePoint" />
            <mxPoint x="238" y="286" as="targetPoint" />
          </mxGeometry>
        </mxCell>
        <mxCell id="B_ZZd6LLFzJvC6nuvmO2-15" value="Просмтор дат" style="ellipse;whiteSpace=wrap;html=1;" vertex="1" parent="1">
          <mxGeometry x="345" y="349" width="74" height="72" as="geometry" />
        </mxCell>
        <mxCell id="B_ZZd6LLFzJvC6nuvmO2-16" value="&amp;lt;&amp;lt;include&amp;gt;&amp;gt;" style="html=1;verticalAlign=bottom;labelBackgroundColor=none;endArrow=open;endFill=0;dashed=1;rounded=0;exitX=1;exitY=0.5;exitDx=0;exitDy=0;entryX=0;entryY=0.5;entryDx=0;entryDy=0;" edge="1" parent="1" source="B_ZZd6LLFzJvC6nuvmO2-13" target="B_ZZd6LLFzJvC6nuvmO2-15">
          <mxGeometry width="160" relative="1" as="geometry">
            <mxPoint x="264.99999999999994" y="226.51999999999998" as="sourcePoint" />
            <mxPoint x="331.7" y="132" as="targetPoint" />
          </mxGeometry>
        </mxCell>
        <mxCell id="B_ZZd6LLFzJvC6nuvmO2-17" value="Сортировка и фильтрация" style="ellipse;whiteSpace=wrap;html=1;" vertex="1" parent="1">
          <mxGeometry x="326" y="441" width="80" height="78" as="geometry" />
        </mxCell>
        <mxCell id="B_ZZd6LLFzJvC6nuvmO2-18" value="&amp;lt;&amp;lt;include&amp;gt;&amp;gt;" style="html=1;verticalAlign=bottom;labelBackgroundColor=none;endArrow=open;endFill=0;dashed=1;rounded=0;exitX=0.5;exitY=1;exitDx=0;exitDy=0;entryX=0;entryY=0.5;entryDx=0;entryDy=0;" edge="1" parent="1" target="B_ZZd6LLFzJvC6nuvmO2-17" source="B_ZZd6LLFzJvC6nuvmO2-13">
          <mxGeometry width="160" relative="1" as="geometry">
            <mxPoint x="298" y="280" as="sourcePoint" />
            <mxPoint x="386.7" y="198" as="targetPoint" />
          </mxGeometry>
        </mxCell>
        <mxCell id="B_ZZd6LLFzJvC6nuvmO2-19" value="" style="endArrow=none;html=1;rounded=0;entryX=0;entryY=0.5;entryDx=0;entryDy=0;" edge="1" parent="1" source="B_ZZd6LLFzJvC6nuvmO2-9" target="B_ZZd6LLFzJvC6nuvmO2-20">
          <mxGeometry width="50" height="50" relative="1" as="geometry">
            <mxPoint x="228" y="418" as="sourcePoint" />
            <mxPoint x="278" y="368" as="targetPoint" />
          </mxGeometry>
        </mxCell>
        <mxCell id="B_ZZd6LLFzJvC6nuvmO2-20" value="Авторизация" style="ellipse;whiteSpace=wrap;html=1;" vertex="1" parent="1">
          <mxGeometry x="115" y="441" width="98" height="69" as="geometry" />
        </mxCell>
        <mxCell id="B_ZZd6LLFzJvC6nuvmO2-21" value="Регистрация" style="ellipse;whiteSpace=wrap;html=1;" vertex="1" parent="1">
          <mxGeometry x="120" y="532" width="94" height="58" as="geometry" />
        </mxCell>
        <mxCell id="B_ZZd6LLFzJvC6nuvmO2-22" value="" style="endArrow=none;html=1;rounded=0;entryX=0;entryY=0.5;entryDx=0;entryDy=0;" edge="1" parent="1" source="B_ZZd6LLFzJvC6nuvmO2-9" target="B_ZZd6LLFzJvC6nuvmO2-21">
          <mxGeometry width="50" height="50" relative="1" as="geometry">
            <mxPoint x="228" y="418" as="sourcePoint" />
            <mxPoint x="278" y="368" as="targetPoint" />
          </mxGeometry>
        </mxCell>
        <mxCell id="B_ZZd6LLFzJvC6nuvmO2-23" value="Создание объявлений" style="ellipse;whiteSpace=wrap;html=1;" vertex="1" parent="1">
          <mxGeometry x="233" y="81" width="87" height="74" as="geometry" />
        </mxCell>
        <mxCell id="B_ZZd6LLFzJvC6nuvmO2-24" value="Редактирование объявлений" style="ellipse;whiteSpace=wrap;html=1;" vertex="1" parent="1">
          <mxGeometry x="279" y="218" width="100" height="79" as="geometry" />
        </mxCell>
        <mxCell id="B_ZZd6LLFzJvC6nuvmO2-25" value="Настройка и получение уведомлений" style="ellipse;whiteSpace=wrap;html=1;" vertex="1" parent="1">
          <mxGeometry x="442" y="317" width="96" height="80" as="geometry" />
        </mxCell>
        <mxCell id="B_ZZd6LLFzJvC6nuvmO2-26" value="Работа с откликами" style="ellipse;whiteSpace=wrap;html=1;" vertex="1" parent="1">
          <mxGeometry x="365" y="136" width="89" height="79" as="geometry" />
        </mxCell>
        <mxCell id="B_ZZd6LLFzJvC6nuvmO2-27" value="&amp;lt;&amp;lt;include&amp;gt;&amp;gt;" style="html=1;verticalAlign=bottom;labelBackgroundColor=none;endArrow=open;endFill=0;dashed=1;rounded=0;exitX=1;exitY=0.5;exitDx=0;exitDy=0;entryX=0;entryY=0.5;entryDx=0;entryDy=0;" edge="1" parent="1" source="B_ZZd6LLFzJvC6nuvmO2-26" target="B_ZZd6LLFzJvC6nuvmO2-28">
          <mxGeometry width="160" relative="1" as="geometry">
            <mxPoint x="544" y="239" as="sourcePoint" />
            <mxPoint x="612" y="233" as="targetPoint" />
          </mxGeometry>
        </mxCell>
        <mxCell id="B_ZZd6LLFzJvC6nuvmO2-28" value="Отклик на объявления" style="ellipse;whiteSpace=wrap;html=1;" vertex="1" parent="1">
          <mxGeometry x="538" y="113" width="90" height="82" as="geometry" />
        </mxCell>
        <mxCell id="B_ZZd6LLFzJvC6nuvmO2-29" value="&amp;lt;&amp;lt;include&amp;gt;&amp;gt;" style="html=1;verticalAlign=bottom;labelBackgroundColor=none;endArrow=open;endFill=0;dashed=1;rounded=0;exitX=1;exitY=1;exitDx=0;exitDy=0;entryX=0;entryY=0.5;entryDx=0;entryDy=0;" edge="1" parent="1" source="B_ZZd6LLFzJvC6nuvmO2-26" target="B_ZZd6LLFzJvC6nuvmO2-30">
          <mxGeometry width="160" relative="1" as="geometry">
            <mxPoint x="489" y="139" as="sourcePoint" />
            <mxPoint x="539" y="91" as="targetPoint" />
          </mxGeometry>
        </mxCell>
        <mxCell id="B_ZZd6LLFzJvC6nuvmO2-30" value="Ответ на отклики к объявлениям пользователя" style="ellipse;whiteSpace=wrap;html=1;" vertex="1" parent="1">
          <mxGeometry x="501" y="229" width="120" height="80" as="geometry" />
        </mxCell>
        <mxCell id="B_ZZd6LLFzJvC6nuvmO2-31" value="Администратор" style="shape=umlActor;verticalLabelPosition=bottom;verticalAlign=top;html=1;outlineConnect=0;" vertex="1" parent="1">
          <mxGeometry x="-12" y="4" width="30" height="60" as="geometry" />
        </mxCell>
        <mxCell id="B_ZZd6LLFzJvC6nuvmO2-32" value="" style="endArrow=none;html=1;rounded=0;entryX=0;entryY=0.5;entryDx=0;entryDy=0;" edge="1" parent="1" source="B_ZZd6LLFzJvC6nuvmO2-8" target="B_ZZd6LLFzJvC6nuvmO2-23">
          <mxGeometry width="50" height="50" relative="1" as="geometry">
            <mxPoint x="167" y="339" as="sourcePoint" />
            <mxPoint x="217" y="289" as="targetPoint" />
          </mxGeometry>
        </mxCell>
        <mxCell id="B_ZZd6LLFzJvC6nuvmO2-33" value="" style="endArrow=none;html=1;rounded=0;entryX=0;entryY=0.5;entryDx=0;entryDy=0;" edge="1" parent="1" source="B_ZZd6LLFzJvC6nuvmO2-8" target="B_ZZd6LLFzJvC6nuvmO2-24">
          <mxGeometry width="50" height="50" relative="1" as="geometry">
            <mxPoint x="167" y="339" as="sourcePoint" />
            <mxPoint x="217" y="289" as="targetPoint" />
          </mxGeometry>
        </mxCell>
        <mxCell id="B_ZZd6LLFzJvC6nuvmO2-34" value="" style="endArrow=none;html=1;rounded=0;entryX=0;entryY=0.5;entryDx=0;entryDy=0;" edge="1" parent="1" source="B_ZZd6LLFzJvC6nuvmO2-8" target="B_ZZd6LLFzJvC6nuvmO2-26">
          <mxGeometry width="50" height="50" relative="1" as="geometry">
            <mxPoint x="167" y="339" as="sourcePoint" />
            <mxPoint x="217" y="289" as="targetPoint" />
          </mxGeometry>
        </mxCell>
        <mxCell id="B_ZZd6LLFzJvC6nuvmO2-35" value="" style="endArrow=none;html=1;rounded=0;entryX=0;entryY=0.5;entryDx=0;entryDy=0;" edge="1" parent="1" source="B_ZZd6LLFzJvC6nuvmO2-8" target="B_ZZd6LLFzJvC6nuvmO2-25">
          <mxGeometry width="50" height="50" relative="1" as="geometry">
            <mxPoint x="167" y="339" as="sourcePoint" />
            <mxPoint x="217" y="289" as="targetPoint" />
          </mxGeometry>
        </mxCell>
        <mxCell id="B_ZZd6LLFzJvC6nuvmO2-36" value="Просмотр списка пользователей" style="ellipse;whiteSpace=wrap;html=1;" vertex="1" parent="1">
          <mxGeometry x="183" y="-66" width="103" height="81" as="geometry" />
        </mxCell>
        <mxCell id="B_ZZd6LLFzJvC6nuvmO2-37" value="" style="endArrow=none;html=1;rounded=0;entryX=0;entryY=0.5;entryDx=0;entryDy=0;" edge="1" parent="1" source="B_ZZd6LLFzJvC6nuvmO2-31" target="B_ZZd6LLFzJvC6nuvmO2-36">
          <mxGeometry width="50" height="50" relative="1" as="geometry">
            <mxPoint x="167" y="222" as="sourcePoint" />
            <mxPoint x="217" y="172" as="targetPoint" />
          </mxGeometry>
        </mxCell>
        <mxCell id="B_ZZd6LLFzJvC6nuvmO2-39" value="" style="endArrow=block;html=1;rounded=0;endFill=0;" edge="1" parent="1" source="B_ZZd6LLFzJvC6nuvmO2-31" target="B_ZZd6LLFzJvC6nuvmO2-8">
          <mxGeometry width="50" height="50" relative="1" as="geometry">
            <mxPoint x="167" y="222" as="sourcePoint" />
            <mxPoint x="217" y="172" as="targetPoint" />
          </mxGeometry>
        </mxCell>
        <mxCell id="B_ZZd6LLFzJvC6nuvmO2-40" value="Блокировка/разблокировка&lt;div&gt;&amp;nbsp;объявлений&lt;/div&gt;" style="ellipse;whiteSpace=wrap;html=1;" vertex="1" parent="1">
          <mxGeometry x="398" y="33" width="114" height="83" as="geometry" />
        </mxCell>
        <mxCell id="B_ZZd6LLFzJvC6nuvmO2-41" value="" style="endArrow=none;html=1;rounded=0;entryX=0;entryY=0.5;entryDx=0;entryDy=0;" edge="1" parent="1" source="B_ZZd6LLFzJvC6nuvmO2-31" target="B_ZZd6LLFzJvC6nuvmO2-40">
          <mxGeometry width="50" height="50" relative="1" as="geometry">
            <mxPoint x="167" y="222" as="sourcePoint" />
            <mxPoint x="217" y="172" as="targetPoint" />
          </mxGeometry>
        </mxCell>
        <mxCell id="B_ZZd6LLFzJvC6nuvmO2-42" value="Блокировка/разблокировка пользований" style="ellipse;whiteSpace=wrap;html=1;aspect=fixed;" vertex="1" parent="1">
          <mxGeometry x="393" y="-66" width="87" height="87" as="geometry" />
        </mxCell>
        <mxCell id="B_ZZd6LLFzJvC6nuvmO2-43" value="" style="endArrow=none;html=1;rounded=0;entryX=0;entryY=1;entryDx=0;entryDy=0;" edge="1" parent="1" source="B_ZZd6LLFzJvC6nuvmO2-31" target="B_ZZd6LLFzJvC6nuvmO2-42">
          <mxGeometry width="50" height="50" relative="1" as="geometry">
            <mxPoint x="167" y="222" as="sourcePoint" />
            <mxPoint x="217" y="172" as="targetPoint" />
          </mxGeometry>
        </mxCell>
      </root>
    </mxGraphModel>
  </diagram>
</mxfile>
